<svg width="24" height="24" viewBox="0 0 24 24" fill="none" xmlns="http://www.w3.org/2000/svg">
<path fill-rule="evenodd" clip-rule="evenodd" d="M21.1472 0.000244141H2.85279C1.27715 0.000244141 0 1.27412 0 2.84649V21.154C0 22.7257 1.27715 24.0002 2.85279 24.0002H21.1472C22.7229 24.0002 24 22.7257 24 21.154V2.84649C24 1.27412 22.7229 0.000244141 21.1472 0.000244141ZM17.2503 3.74977C17.2503 3.33606 17.5861 3.00024 17.9999 3.00024H20.2498C20.6641 3.00024 20.9999 3.33606 20.9999 3.74977V5.99967C20.9999 6.41404 20.6641 6.74986 20.2498 6.74986H17.9999C17.5861 6.74986 17.2503 6.41404 17.2503 5.99967V3.74977ZM12.0278 7.42342C14.5768 7.42342 16.6434 9.48545 16.6434 12.028C16.6434 14.5711 14.5768 16.6325 12.0278 16.6325C9.47937 16.6325 7.41276 14.5711 7.41276 12.028C7.41276 9.48545 9.47937 7.42342 12.0278 7.42342ZM21.7502 21.0001C21.7502 21.4138 21.4144 21.7502 21 21.7502H3.00018C2.58582 21.7502 2.25 21.4138 2.25 21.0001V9.74992H5.25008C4.85928 10.3122 4.72705 11.3616 4.72705 12.028C4.72705 16.044 8.00272 19.3118 12.0279 19.3118C16.0538 19.3118 19.3295 16.044 19.3295 12.028C19.3295 11.3616 19.2345 10.3279 18.7501 9.74992H21.7502V21.0001Z" fill="#ADB5BD"/>
</svg>
