<svg width="24" height="24" viewBox="0 0 24 24" fill="none" xmlns="http://www.w3.org/2000/svg">
<path fill-rule="evenodd" clip-rule="evenodd" d="M24 22.6755C24 23.407 23.407 24.0007 22.6755 24.0007H16.5596V14.7062H19.6793L20.1468 11.0838H16.5596V8.77143C16.5596 7.72281 16.8512 7.00825 18.3548 7.00825L20.2729 7.0076V3.76759C19.9408 3.72379 18.8026 3.62507 17.4781 3.62507C14.7128 3.62507 12.8195 5.31307 12.8195 8.41317V11.0838H9.69192V14.7062H12.8195V24.0007H1.32451C0.592956 24.0007 0 23.407 0 22.6755V1.32516C0 0.592956 0.592956 0 1.32451 0H22.6755C23.407 0 24 0.592956 24 1.32516V22.6755Z" fill="#ADB5BD"/>
</svg>
