<svg width="24" height="24" viewBox="0 0 24 24" fill="none" xmlns="http://www.w3.org/2000/svg">
<path fill-rule="evenodd" clip-rule="evenodd" d="M19.1522 23.9426C21.8008 23.9426 23.9426 21.7912 23.9426 19.1522V4.79044C23.9426 2.14183 21.8008 0 19.1522 0H4.79044C2.14183 0 0 2.14183 0 4.79044V19.1522C0 21.7912 2.14183 23.9426 4.79044 23.9426H19.1522ZM4.95298 1.82617H18.9801C20.7681 1.82617 22.2215 3.28912 22.2119 5.07717V12.7839C22.2119 14.5816 20.7586 16.0349 18.9705 16.0349H14.1418L12.4972 18.7218C12.4972 18.7218 12.4781 18.7505 12.4398 18.7983C12.3442 18.9608 12.1625 19.0756 11.9617 19.0756C11.761 19.0756 11.5793 18.9608 11.4837 18.7983C11.4454 18.7505 11.4263 18.7218 11.4263 18.7218L9.78167 16.0349H4.95298C3.16493 16.0349 1.71155 14.5816 1.71155 12.7839V5.07717C1.71155 3.27956 3.16493 1.82617 4.95298 1.82617Z" fill="#ADB5BD"/>
<path d="M6.27248 7.47723C6.27248 7.47723 5.70834 7.47723 5.20157 7.97444V5.9856H3.94897V11.2159H5.22069V10.8047C5.22069 10.8047 5.5171 11.3402 6.27248 11.3402C6.27248 11.3402 8.04141 11.2732 8.04141 9.38958C8.04141 9.38958 7.97448 7.47723 6.27248 7.47723ZM5.99519 10.2406C5.54579 10.2406 5.192 9.87723 5.192 9.43739C5.192 8.98799 5.55535 8.6342 5.99519 8.6342C6.44459 8.6342 6.79838 8.99755 6.79838 9.43739C6.79838 9.87723 6.44459 10.2406 5.99519 10.2406Z" fill="#ADB5BD"/>
<path d="M8.44299 5.86133V7.07567C8.44299 7.07567 9.0167 7.04699 9.0167 8.1179V11.2159H10.231V7.83105C10.231 7.83105 10.2789 5.86133 8.44299 5.86133Z" fill="#ADB5BD"/>
<path d="M13.1856 7.49634C13.1856 7.49634 11.1107 7.49634 11.1107 9.43737C11.1107 9.43737 11.0438 11.3497 13.1856 11.3497C13.1856 11.3497 15.3083 11.3497 15.3083 9.43737C15.3083 9.42781 15.3752 7.49634 13.1856 7.49634ZM13.1856 10.2406C12.7362 10.2406 12.3824 9.87721 12.3824 9.43737C12.3824 8.98797 12.7458 8.63419 13.1856 8.63419C13.635 8.63419 13.9888 8.99753 13.9888 9.43737C13.9888 9.87721 13.6254 10.2406 13.1856 10.2406Z" fill="#ADB5BD"/>
<path d="M18.7697 7.62078V7.97457C18.7697 7.97457 18.4064 7.49648 17.7179 7.49648C17.7179 7.49648 15.9395 7.41999 15.9395 9.41839C15.9395 9.41839 15.9203 11.2829 17.6701 11.2829C17.6701 11.2829 18.3777 11.3116 18.7697 10.8048V11.1013C18.7697 11.1013 18.8558 12.0192 17.9666 12.0192H17.6606V13.1284H18.1482C18.1482 13.1284 19.9841 13.1475 19.9841 11.1682V7.63035H18.7697V7.62078ZM18.0144 10.2407C17.565 10.2407 17.2112 9.87736 17.2112 9.43752C17.2112 8.98811 17.5745 8.63433 18.0144 8.63433C18.4638 8.63433 18.8176 8.99768 18.8176 9.43752C18.8271 9.87736 18.4638 10.2407 18.0144 10.2407Z" fill="#ADB5BD"/>
</svg>
